<svg width="32769" height="4804" viewBox="0 0 32769 4804" fill="none" xmlns="http://www.w3.org/2000/svg">
<path d="M4461.47 198.012H5135.95V4492.41H4436.71V612.601L2530.85 3867.43L2400.9 4084.01L2394.71 4096.38L2301.89 4257.27L2202.89 4084.01L2178.14 4046.88L2091.51 3898.37L191.824 662.104V4492.41H0V198.012H736.359L2598.91 3366.21L4393.4 309.394L4449.09 222.764L4461.47 198.012Z" fill="#016D77"/>
<path d="M13577.2 488.843C13932 678.605 14198 938.496 14375.4 1268.52C14556.9 1594.41 14647.7 1953.31 14647.7 2345.21C14647.7 2732.98 14554.9 3089.82 14369.2 3415.71C14187.7 3741.61 13919.6 4001.5 13564.8 4195.39C13210 4389.27 12791.3 4488.28 12308.7 4492.41H10272.9V198.012H12308.7C12803.7 198.012 13226.5 294.956 13577.2 488.843ZM13168.8 4053.07C13424.6 3875.68 13618.4 3636.42 13750.5 3335.27C13882.5 3034.13 13948.5 2704.11 13948.5 2345.21C13948.5 1982.19 13882.5 1652.17 13750.5 1355.15C13622.6 1058.13 13430.7 820.926 13175 643.54C12919.2 466.154 12611.9 375.399 12253 371.273H10978.3V4312.96H12246.8C12609.8 4312.96 12917.1 4226.33 13168.8 4053.07Z" fill="#016D77"/>
<path d="M17154.2 210.388L19115.8 4492.41H18342.3L17921.5 3576.6H15533L15093.7 4492.41H14895.6L17061.4 0L17154.2 210.388ZM15619.6 3397.15H17841.1L16758.2 1033.38L15619.6 3397.15Z" fill="#016D77"/>
<path d="M23100.5 198.012H23292.3V2846.43C23292.3 3316.71 23145.9 3708.61 22853 4022.13C22564.2 4335.65 22091.9 4492.41 21436 4492.41C21035.8 4492.41 20693.4 4426.4 20408.8 4294.39C20124.1 4158.26 19909.6 3980.87 19765.2 3762.24C19620.8 3539.47 19548.6 3300.21 19548.6 3044.44V198.012H20254.1V2902.12C20254.1 3129.01 20282.9 3331.15 20340.7 3508.53C20402.6 3681.79 20476.8 3817.93 20563.5 3916.93C20650.1 4015.94 20753.2 4098.44 20872.9 4164.45C20992.5 4226.33 21101.8 4267.58 21200.8 4288.21C21303.9 4308.83 21407.1 4319.15 21510.2 4319.15C21836.1 4319.15 22118.7 4261.39 22357.9 4145.88C22597.2 4030.38 22780.8 3869.49 22908.7 3663.23C23036.6 3456.97 23100.5 3223.89 23100.5 2964V198.012Z" fill="#016D77"/>
<path d="M30002 3811.74L30020.6 3786.99L30082.5 3855.05L30076.3 3885.99C30030.9 4026.25 29956.6 4156.2 29853.5 4275.83C29733.9 4411.96 29585.4 4531.6 29408 4634.73C29337.8 4671.85 29232.7 4706.92 29092.4 4739.92C28956.3 4772.92 28789.2 4793.55 28591.2 4801.8C28397.3 4810.05 28205.5 4787.36 28015.7 4733.73C27871.3 4692.48 27718.7 4636.79 27557.8 4566.66C27401 4496.53 27275.2 4434.65 27180.3 4381.02C27089.6 4327.4 26978.2 4261.39 26846.2 4183.01C26714.2 4104.63 26637.9 4059.25 26617.2 4046.88C26547.1 4005.63 26468.7 3960.25 26382.1 3910.74C26299.6 3861.24 26229.5 3819.99 26171.7 3786.99C26118.1 3753.98 26054.1 3716.86 25979.9 3675.61C25909.8 3634.35 25847.9 3601.35 25794.3 3576.6C25744.8 3547.72 25684.9 3518.85 25614.8 3489.97C25548.8 3461.09 25486.9 3438.4 25429.2 3421.9C25371.4 3405.4 25307.5 3390.96 25237.3 3378.59C25167.2 3362.09 25097.1 3349.71 25027 3341.46H24810.4V4492.41H24105V191.825H26388.3C26738.9 191.825 27058.6 299.081 27347.4 513.595C27462.9 600.225 27564 701.294 27650.6 816.801C27861 1101.44 27966.2 1419.09 27966.2 1769.74C27966.2 2054.38 27896.1 2316.33 27755.8 2555.6C27619.7 2794.86 27434 2986.69 27198.9 3131.07C27066.9 3209.45 26928.7 3265.14 26784.3 3298.14C26776.1 3302.27 26736.9 3310.52 26666.7 3322.9C26642 3327.02 26621.4 3331.15 26604.9 3335.27C26609 3335.27 26611.1 3335.27 26611.1 3335.27H26301.7C26503.8 3405.4 26790.5 3539.47 27161.8 3737.48C27537.2 3935.5 27828 4073.69 28034.3 4152.07C28092 4172.7 28147.7 4193.32 28201.3 4213.95C28201.3 4213.95 28203.4 4213.95 28207.5 4213.95C28356 4263.45 28502.5 4296.46 28646.9 4312.96C28795.4 4325.33 28921.2 4327.4 29024.3 4319.15C29127.5 4306.77 29226.5 4288.21 29321.3 4263.45C29420.4 4234.58 29494.6 4209.83 29544.1 4189.2C29593.6 4164.45 29639 4139.7 29680.2 4114.94C29828.8 4024.19 29936 3923.12 30002 3811.74ZM25911.8 3149.63C26064.5 3145.51 26213 3114.57 26357.3 3056.82C26448.1 3023.81 26526.5 2986.69 26592.5 2945.43C26798.8 2817.55 26961.7 2650.48 27081.3 2444.22C27201 2237.95 27260.8 2013.13 27260.8 1769.74C27260.8 1509.84 27207.2 1276.77 27099.9 1070.5C26992.6 860.117 26831.8 695.106 26617.2 575.474C26406.9 451.716 26151.1 389.837 25849.9 389.837H24810.4V3149.63H25911.8ZM30812.6 204.201L32768 4492.41H31994.5L31573.7 3576.6H29185.2L28875.8 4220.14C28813.9 4216.01 28752.1 4211.89 28690.2 4207.76L30713.6 0L30812.6 204.201ZM29271.8 3397.15H31493.3L30410.4 1033.38L29271.8 3397.15Z" fill="#016D77"/>
<path d="M7237.47 227.709C7435.67 186.467 7853.26 291.322 7853.26 752.895C7821.49 1208.91 7406.12 1251.08 7405.65 1251.13C7073.26 1288.23 6885.21 1052.81 6840.19 892.03C6592.99 1209.17 6503.82 1475.51 6452.17 1894.69C6452.17 2351.4 6467.18 2496.28 6669.36 2923.4C6882.12 3276.76 7109.9 3468.02 7443.62 3580.65C7873.57 3678.71 8178.59 3590.37 8532.17 3282.06C8837.2 2987.89 8969.62 2601.4 9014.21 2237C9067.39 1802.37 8947.11 1376.13 8766.57 1074.45C8566.16 745.824 8438.59 755.983 8413.43 606.247C8413.38 606.091 8388.13 521.382 8420.93 441.052C8467.24 327.635 8566.43 386.618 8566.6 386.722C8833.22 535.575 8896.67 581.401 9074.24 774.976C9237.13 952.539 9297.6 1065.61 9394.94 1259.08C9582.64 1670.5 9614.2 2136.37 9483.7 2569.43C9353.21 3002.49 9069.63 3373.01 8686.07 3611.59C8418.97 3777.73 8116.15 3871.94 7806.55 3888.52C7925.96 3930.23 8011.73 4044.99 8011.73 4180.04C8011.73 4350.31 7875.36 4488.34 7707.15 4488.34C7538.93 4488.34 7402.56 4350.31 7402.56 4180.04C7402.56 4044.95 7488.39 3930.16 7607.86 3888.48C7538.54 3884.74 7469.18 3877.09 7400.11 3865.46C6954.91 3790.48 6552.26 3555.43 6267.6 3204.32C5982.94 2853.22 5835.8 2410.16 5853.74 1958.15C5871.69 1506.14 6053.49 1076.19 6365.08 748.861C6676.68 421.527 7082.53 259.952 7237.47 227.709Z" fill="#B76E79"/>
</svg>
